<?xml version="1.0" encoding="utf-8"?>
<!-- Generator: Adobe Illustrator 25.2.1, SVG Export Plug-In . SVG Version: 6.00 Build 0)  -->
<svg version="1.1" xmlns="http://www.w3.org/2000/svg" xmlns:xlink="http://www.w3.org/1999/xlink" x="0px" y="0px"
	 viewBox="0 0 750 500" style="enable-background:new 0 0 750 500;" xml:space="preserve">
<style type="text/css">
	.st0{clip-path:url(#SVGID_2_);fill:#1A1A1F;}
	.st1{clip-path:url(#SVGID_2_);fill:url(#SVGID_3_);}
	.st2{clip-path:url(#SVGID_2_);}
	.st3{fill:url(#SVGID_4_);}
	.st4{fill:url(#SVGID_5_);}
	.st5{fill:url(#SVGID_6_);}
	.st6{fill:url(#SVGID_7_);}
	.st7{fill:url(#SVGID_8_);}
	.st8{fill:url(#SVGID_9_);}
	.st9{fill:url(#SVGID_10_);}
	.st10{fill:url(#SVGID_11_);}
</style>
<g id="BACKGROUND">
	<g>
		<defs>
			
				<rect id="SVGID_1_" x="1.25" y="1.67" transform="matrix(-1 -1.224647e-16 1.224647e-16 -1 752.5096 503.3376)" width="750" height="500"/>
		</defs>
		<clipPath id="SVGID_2_">
			<use xlink:href="#SVGID_1_"  style="overflow:visible;"/>
		</clipPath>
		
			<rect x="1.25" y="1.67" transform="matrix(-1 -1.224647e-16 1.224647e-16 -1 752.5096 503.3376)" class="st0" width="750" height="500"/>
		<radialGradient id="SVGID_3_" cx="376.2548" cy="251.6688" r="559.9807" gradientUnits="userSpaceOnUse">
			<stop  offset="0.1668" style="stop-color:#2B3032"/>
			<stop  offset="1" style="stop-color:#171C1E"/>
		</radialGradient>
		<polygon class="st1" points="1.25,501.67 751.25,501.67 751.25,1.67 1.25,1.67 		"/>
		<g class="st2">
			<g>
				
					<linearGradient id="SVGID_4_" gradientUnits="userSpaceOnUse" x1="596.7451" y1="463.4152" x2="480.3524" y2="530.6146" gradientTransform="matrix(0 1 1 0 11.3607 -41.8562)">
					<stop  offset="0" style="stop-color:#E89F25"/>
					<stop  offset="1" style="stop-color:#EFCE30"/>
				</linearGradient>
				<path class="st3" d="M477.18,545.57l80.08-80.08c4.88-4.88,4.88-12.8,0-17.68l0,0c-4.88-4.88-12.8-4.88-17.68,0l-80.08,80.08
					c-4.88,4.88-4.88,12.8,0,17.68l0,0C464.38,550.45,472.29,550.45,477.18,545.57z"/>
			</g>
			
				<linearGradient id="SVGID_5_" gradientUnits="userSpaceOnUse" x1="-13.3992" y1="330.8912" x2="202.0928" y2="330.8912" gradientTransform="matrix(0 1 1 0 11.3607 -41.8562)">
				<stop  offset="0" style="stop-color:#438CC1"/>
				<stop  offset="1" style="stop-color:#75E5FC"/>
			</linearGradient>
			<path class="st4" d="M276.62,153.01L442.77-13.14c9.64-9.64,9.64-25.26,0-34.89l0,0c-9.64-9.64-25.26-9.64-34.89,0L241.73,118.12
				c-9.64,9.64-9.64,25.26,0,34.89v0C251.37,162.65,266.99,162.65,276.62,153.01z"/>
			<g>
				<g>
					
						<linearGradient id="SVGID_6_" gradientUnits="userSpaceOnUse" x1="204.0488" y1="622.6752" x2="110.8213" y2="676.5001" gradientTransform="matrix(0 1 1 0 11.3607 -41.8562)">
						<stop  offset="0" style="stop-color:#863FFA"/>
						<stop  offset="1" style="stop-color:#649FFC"/>
					</linearGradient>
					<path class="st5" d="M667.34,76.58l-45.14,45.14c-9.04,9.04-9.04,23.69,0,32.72l0,0c9.04,9.04,23.69,9.04,32.72,0l44.5-44.5
						c8.81-8.81,9.11-23.52,0.68-32.68v0C691.28,67.68,676.54,67.38,667.34,76.58z"/>
				</g>
			</g>
			
				<linearGradient id="SVGID_7_" gradientUnits="userSpaceOnUse" x1="99.289" y1="50.9078" x2="276.5507" y2="-51.4343" gradientTransform="matrix(0 -1 -1 0 8.7912 303.9876)">
				<stop  offset="0" style="stop-color:#E89F25"/>
				<stop  offset="1" style="stop-color:#EFCE30"/>
			</linearGradient>
			<path class="st6" d="M-29.05,190.34L83.33,77.96c9.99-9.99,9.99-26.18,0-36.17l0,0c-9.99-9.99-26.18-9.99-36.17,0L-65.22,154.18
				c-9.99,9.99-9.99,26.18,0,36.17l0,0C-55.23,200.33-39.04,200.33-29.05,190.34z"/>
			
				<linearGradient id="SVGID_8_" gradientUnits="userSpaceOnUse" x1="596.9948" y1="150.8985" x2="299.6875" y2="322.549" gradientTransform="matrix(0 1 1 0 11.3607 -41.8562)">
				<stop  offset="0" style="stop-color:#863FFA"/>
				<stop  offset="1" style="stop-color:#649FFC"/>
			</linearGradient>
			<path class="st7" d="M123.16,490.46l208.91-208.91c11.31-11.31,29.64-11.31,40.95,0h0c11.31,11.31,11.31,29.64,0,40.95
				L164.1,531.41c-11.31,11.31-29.64,11.31-40.95,0l0,0C111.85,520.11,111.85,501.77,123.16,490.46z"/>
			
				<linearGradient id="SVGID_9_" gradientUnits="userSpaceOnUse" x1="409.2881" y1="663.7667" x2="567.3686" y2="663.7667" gradientTransform="matrix(0 1 1 0 11.3607 -41.8562)">
				<stop  offset="0" style="stop-color:#E68F38"/>
				<stop  offset="0.2197" style="stop-color:#E47B43"/>
				<stop  offset="0.6658" style="stop-color:#DF485E"/>
				<stop  offset="1" style="stop-color:#DB1E74"/>
			</linearGradient>
			<path class="st8" d="M722.53,417.96l-65.38,65.38c-8.11,8.11-21.27,8.13-29.4,0.02h0c-8.15-8.12-8.16-21.31-0.02-29.44
				l65.38-65.38c8.12-8.12,21.3-8.12,29.42,0l0,0C730.65,396.66,730.65,409.83,722.53,417.96z"/>
			
				<linearGradient id="SVGID_10_" gradientUnits="userSpaceOnUse" x1="416.173" y1="53.547" x2="482.5461" y2="-61.4148" gradientTransform="matrix(0 1 1 0 11.3607 -41.8562)">
				<stop  offset="0" style="stop-color:#E68F38"/>
				<stop  offset="0.2197" style="stop-color:#E47B43"/>
				<stop  offset="0.6658" style="stop-color:#DF485E"/>
				<stop  offset="1" style="stop-color:#DB1E74"/>
			</linearGradient>
			<path class="st9" d="M-26.26,455.83l82.01-82.01c4.04-4.04,4.04-10.6,0-14.64h0c-4.04-4.04-10.6-4.04-14.64,0l-82.01,82.01
				c-4.04,4.04-4.04,10.6,0,14.64l0,0C-36.86,459.88-30.3,459.88-26.26,455.83z"/>
			<linearGradient id="SVGID_11_" gradientUnits="userSpaceOnUse" x1="690.3943" y1="259.148" x2="779.8757" y2="259.148">
				<stop  offset="0" style="stop-color:#E89F25"/>
				<stop  offset="1" style="stop-color:#EFCE30"/>
			</linearGradient>
			<path class="st10" d="M702.72,301.77l75.04-75.04c2.82-2.82,2.82-7.39,0-10.21h0c-2.82-2.82-7.39-2.82-10.21,0l-75.04,75.04
				c-2.82,2.82-2.82,7.39,0,10.21l0,0C695.33,304.59,699.9,304.59,702.72,301.77z"/>
		</g>
	</g>
</g>
<g id="OBJECTS">
</g>
</svg>
